<svg width="456" height="456" viewBox="0 0 456 456" fill="none" xmlns="http://www.w3.org/2000/svg">
    <circle cx="228" cy="228" r="228" fill="#DB9498" />
    <path
        d="M133.305 202.934C133.305 206.527 132.736 209.672 131.598 212.367C130.46 215.003 128.902 217.249 126.926 219.105C124.949 220.962 122.643 222.49 120.008 223.688C117.432 224.826 114.677 225.724 111.742 226.383C108.867 226.982 105.902 227.401 102.848 227.641C99.8529 227.88 96.9479 228 94.1328 228H50.918V225.395C53.793 225.395 56.069 225.215 57.7461 224.855C59.4831 224.436 60.8008 223.747 61.6992 222.789C62.5977 221.771 63.1966 220.393 63.4961 218.656C63.7956 216.859 63.9453 214.583 63.9453 211.828V152.352C63.9453 149.477 63.8255 147.171 63.5859 145.434C63.3464 143.637 62.7773 142.229 61.8789 141.211C60.9805 140.193 59.6628 139.504 57.9258 139.145C56.1888 138.785 53.8529 138.605 50.918 138.605V136.18H90.4492C93.2044 136.18 96.0794 136.299 99.0742 136.539C102.129 136.779 105.094 137.228 107.969 137.887C110.844 138.486 113.569 139.354 116.145 140.492C118.72 141.63 120.966 143.128 122.883 144.984C124.859 146.781 126.417 148.997 127.555 151.633C128.693 154.208 129.262 157.263 129.262 160.797C129.262 163.372 128.812 165.738 127.914 167.895C127.076 170.051 125.908 171.997 124.41 173.734C122.913 175.411 121.146 176.879 119.109 178.137C117.073 179.395 114.887 180.383 112.551 181.102C115.605 181.641 118.391 182.479 120.906 183.617C123.422 184.695 125.608 186.133 127.465 187.93C129.322 189.667 130.759 191.793 131.777 194.309C132.796 196.764 133.305 199.639 133.305 202.934ZM114.887 160.078C114.887 156.484 114.108 153.46 112.551 151.004C111.053 148.548 109.077 146.572 106.621 145.074C104.225 143.517 101.5 142.409 98.4453 141.75C95.4505 141.091 92.4258 140.762 89.3711 140.762C87.2747 140.762 85.1784 140.882 83.082 141.121C81.0456 141.301 79.0091 141.63 76.9727 142.109V177.418C79.1289 177.897 81.2852 178.167 83.4414 178.227C85.6576 178.286 87.8138 178.316 89.9102 178.316C93.0846 178.316 96.1693 178.077 99.1641 177.598C102.159 177.059 104.824 176.1 107.16 174.723C109.496 173.345 111.353 171.488 112.73 169.152C114.168 166.816 114.887 163.792 114.887 160.078ZM117.672 203.922C117.672 199.969 116.803 196.674 115.066 194.039C113.329 191.344 111.083 189.188 108.328 187.57C105.633 185.953 102.578 184.815 99.1641 184.156C95.75 183.438 92.3659 183.078 89.0117 183.078C87.0951 183.078 85.0885 183.108 82.9922 183.168C80.9557 183.168 78.9492 183.318 76.9727 183.617V221.352C79.6081 221.951 82.2135 222.43 84.7891 222.789C87.3646 223.089 90 223.238 92.6953 223.238C95.75 223.238 98.7448 222.909 101.68 222.25C104.674 221.531 107.34 220.423 109.676 218.926C112.072 217.368 113.988 215.362 115.426 212.906C116.923 210.451 117.672 207.456 117.672 203.922ZM212.277 228H141.66V225.395C144.535 225.395 146.811 225.215 148.488 224.855C150.225 224.496 151.543 223.837 152.441 222.879C153.34 221.861 153.939 220.483 154.238 218.746C154.538 216.949 154.688 214.643 154.688 211.828V151.992C154.688 149.117 154.568 146.811 154.328 145.074C154.089 143.337 153.52 141.99 152.621 141.031C151.723 140.073 150.405 139.444 148.668 139.145C146.931 138.785 144.595 138.605 141.66 138.605V136.18H212.277L213.355 156.215H210.84C210.061 153.28 209.312 150.854 208.594 148.938C207.935 146.961 207.007 145.404 205.809 144.266C204.671 143.128 203.083 142.319 201.047 141.84C199.07 141.361 196.375 141.121 192.961 141.121H167.625V177.418H187.84C190.655 177.418 192.901 177.238 194.578 176.879C196.315 176.46 197.693 175.771 198.711 174.812C199.789 173.794 200.568 172.447 201.047 170.77C201.586 169.033 202.035 166.816 202.395 164.121H204.91V196.195H202.395C202.035 193.5 201.586 191.284 201.047 189.547C200.568 187.81 199.819 186.432 198.801 185.414C197.783 184.336 196.405 183.587 194.668 183.168C192.991 182.749 190.715 182.539 187.84 182.539H167.625V212.727C167.625 214.523 167.655 216.081 167.715 217.398C167.835 218.656 168.134 219.704 168.613 220.543C169.152 221.382 169.931 222.01 170.949 222.43C171.967 222.849 173.435 223.059 175.352 223.059H190.805C194.818 223.059 198.112 222.729 200.688 222.07C203.263 221.411 205.479 220.363 207.336 218.926C209.253 217.488 210.96 215.632 212.457 213.355C213.954 211.02 215.632 208.234 217.488 205H220.363L212.277 228ZM301.672 157.742C301.133 152.531 299.546 148.608 296.91 145.973C294.275 143.277 290.232 141.93 284.781 141.93H271.934V212.008C271.934 214.823 272.053 217.099 272.293 218.836C272.533 220.573 273.102 221.951 274 222.969C274.898 223.927 276.186 224.586 277.863 224.945C279.6 225.245 281.906 225.395 284.781 225.395V228H245.969V225.395C248.844 225.395 251.12 225.215 252.797 224.855C254.474 224.496 255.762 223.837 256.66 222.879C257.559 221.861 258.128 220.483 258.367 218.746C258.667 217.009 258.816 214.763 258.816 212.008V141.93H247.766C244.891 141.93 242.375 142.199 240.219 142.738C238.062 143.217 236.236 144.056 234.738 145.254C233.301 146.452 232.163 148.069 231.324 150.105C230.546 152.142 230.036 154.688 229.797 157.742H226.652L227.551 136.18H303.738L304.637 157.742H301.672ZM370.133 228V225.395C371.151 225.395 372.199 225.335 373.277 225.215C374.355 225.035 375.344 224.736 376.242 224.316C377.141 223.897 377.889 223.328 378.488 222.609C379.087 221.831 379.387 220.812 379.387 219.555C379.387 218.357 379.027 216.68 378.309 214.523C377.59 212.367 376.781 210.151 375.883 207.875C374.984 205.599 374.086 203.473 373.188 201.496C372.289 199.52 371.66 198.112 371.301 197.273H335.723C335.483 197.753 335.094 198.561 334.555 199.699C334.076 200.777 333.507 202.035 332.848 203.473C332.189 204.85 331.53 206.318 330.871 207.875C330.212 209.432 329.583 210.96 328.984 212.457C328.445 213.954 327.996 215.332 327.637 216.59C327.277 217.848 327.098 218.836 327.098 219.555C327.098 220.753 327.487 221.741 328.266 222.52C329.044 223.238 330.003 223.807 331.141 224.227C332.279 224.646 333.447 224.945 334.645 225.125C335.842 225.245 336.891 225.335 337.789 225.395V228H308.859V225.395C311.016 225.275 312.842 224.796 314.34 223.957C315.837 223.059 317.155 221.921 318.293 220.543C319.431 219.105 320.419 217.488 321.258 215.691C322.156 213.835 323.055 211.858 323.953 209.762L356.387 134.203H358.723L390.617 210.301C391.516 212.397 392.354 214.344 393.133 216.141C393.971 217.878 394.96 219.435 396.098 220.812C397.236 222.13 398.613 223.208 400.23 224.047C401.848 224.826 403.914 225.275 406.43 225.395V228H370.133ZM353.781 154.957L337.789 192.332H369.414L353.781 154.957ZM183.078 308.934C183.078 312.527 182.509 315.672 181.371 318.367C180.233 321.003 178.676 323.249 176.699 325.105C174.723 326.962 172.417 328.49 169.781 329.688C167.206 330.826 164.451 331.724 161.516 332.383C158.641 332.982 155.676 333.401 152.621 333.641C149.626 333.88 146.721 334 143.906 334H100.691V331.395C103.566 331.395 105.842 331.215 107.52 330.855C109.257 330.436 110.574 329.747 111.473 328.789C112.371 327.771 112.97 326.393 113.27 324.656C113.569 322.859 113.719 320.583 113.719 317.828V258.352C113.719 255.477 113.599 253.171 113.359 251.434C113.12 249.637 112.551 248.229 111.652 247.211C110.754 246.193 109.436 245.504 107.699 245.145C105.962 244.785 103.626 244.605 100.691 244.605V242.18H140.223C142.978 242.18 145.853 242.299 148.848 242.539C151.902 242.779 154.867 243.228 157.742 243.887C160.617 244.486 163.342 245.354 165.918 246.492C168.493 247.63 170.74 249.128 172.656 250.984C174.633 252.781 176.19 254.997 177.328 257.633C178.466 260.208 179.035 263.263 179.035 266.797C179.035 269.372 178.586 271.738 177.688 273.895C176.849 276.051 175.681 277.997 174.184 279.734C172.686 281.411 170.919 282.879 168.883 284.137C166.846 285.395 164.66 286.383 162.324 287.102C165.379 287.641 168.164 288.479 170.68 289.617C173.195 290.695 175.382 292.133 177.238 293.93C179.095 295.667 180.533 297.793 181.551 300.309C182.569 302.764 183.078 305.639 183.078 308.934ZM164.66 266.078C164.66 262.484 163.882 259.46 162.324 257.004C160.827 254.548 158.85 252.572 156.395 251.074C153.999 249.517 151.273 248.409 148.219 247.75C145.224 247.091 142.199 246.762 139.145 246.762C137.048 246.762 134.952 246.882 132.855 247.121C130.819 247.301 128.783 247.63 126.746 248.109V283.418C128.902 283.897 131.059 284.167 133.215 284.227C135.431 284.286 137.587 284.316 139.684 284.316C142.858 284.316 145.943 284.077 148.938 283.598C151.932 283.059 154.598 282.1 156.934 280.723C159.27 279.345 161.126 277.488 162.504 275.152C163.941 272.816 164.66 269.792 164.66 266.078ZM167.445 309.922C167.445 305.969 166.577 302.674 164.84 300.039C163.103 297.344 160.857 295.188 158.102 293.57C155.406 291.953 152.352 290.815 148.938 290.156C145.523 289.438 142.139 289.078 138.785 289.078C136.868 289.078 134.862 289.108 132.766 289.168C130.729 289.168 128.723 289.318 126.746 289.617V327.352C129.382 327.951 131.987 328.43 134.562 328.789C137.138 329.089 139.773 329.238 142.469 329.238C145.523 329.238 148.518 328.909 151.453 328.25C154.448 327.531 157.113 326.423 159.449 324.926C161.845 323.368 163.762 321.362 165.199 318.906C166.697 316.451 167.445 313.456 167.445 309.922ZM262.051 334H191.434V331.395C194.309 331.395 196.585 331.215 198.262 330.855C199.999 330.496 201.316 329.837 202.215 328.879C203.113 327.861 203.712 326.483 204.012 324.746C204.311 322.949 204.461 320.643 204.461 317.828V257.992C204.461 255.117 204.341 252.811 204.102 251.074C203.862 249.337 203.293 247.99 202.395 247.031C201.496 246.073 200.178 245.444 198.441 245.145C196.704 244.785 194.368 244.605 191.434 244.605V242.18H262.051L263.129 262.215H260.613C259.835 259.28 259.086 256.854 258.367 254.938C257.708 252.961 256.78 251.404 255.582 250.266C254.444 249.128 252.857 248.319 250.82 247.84C248.844 247.361 246.148 247.121 242.734 247.121H217.398V283.418H237.613C240.428 283.418 242.674 283.238 244.352 282.879C246.089 282.46 247.466 281.771 248.484 280.812C249.562 279.794 250.341 278.447 250.82 276.77C251.359 275.033 251.809 272.816 252.168 270.121H254.684V302.195H252.168C251.809 299.5 251.359 297.284 250.82 295.547C250.341 293.81 249.592 292.432 248.574 291.414C247.556 290.336 246.178 289.587 244.441 289.168C242.764 288.749 240.488 288.539 237.613 288.539H217.398V318.727C217.398 320.523 217.428 322.081 217.488 323.398C217.608 324.656 217.908 325.704 218.387 326.543C218.926 327.382 219.704 328.01 220.723 328.43C221.741 328.849 223.208 329.059 225.125 329.059H240.578C244.591 329.059 247.885 328.729 250.461 328.07C253.036 327.411 255.253 326.363 257.109 324.926C259.026 323.488 260.733 321.632 262.23 319.355C263.728 317.02 265.405 314.234 267.262 311H270.137L262.051 334ZM347.043 334H275.707V331.395C277.863 331.395 279.78 331.275 281.457 331.035C283.134 330.736 284.512 330.197 285.59 329.418C286.728 328.579 287.596 327.411 288.195 325.914C288.794 324.417 289.094 322.44 289.094 319.984V256.195C289.094 253.799 288.794 251.853 288.195 250.355C287.596 248.858 286.728 247.72 285.59 246.941C284.512 246.103 283.134 245.534 281.457 245.234C279.78 244.935 277.863 244.785 275.707 244.785V242.18H315.598V244.785C313.382 244.785 311.435 244.935 309.758 245.234C308.081 245.534 306.673 246.103 305.535 246.941C304.397 247.72 303.529 248.858 302.93 250.355C302.331 251.853 302.031 253.799 302.031 256.195V316.66C302.031 318.936 302.211 320.823 302.57 322.32C302.93 323.758 303.529 324.926 304.367 325.824C305.266 326.663 306.464 327.262 307.961 327.621C309.458 327.921 311.345 328.07 313.621 328.07H322.785C327.217 328.07 330.931 327.831 333.926 327.352C336.921 326.812 339.496 325.854 341.652 324.477C343.868 323.039 345.815 321.062 347.492 318.547C349.169 315.971 350.876 312.647 352.613 308.574L354.949 308.934L347.043 334Z"
        fill="white" />
    <circle cx="228" cy="228" r="216.5" stroke="white" stroke-width="3" />
</svg>